<svg fill="none" xmlns="http://www.w3.org/2000/svg" viewBox="0 0 300 110"><g clip-path="url(#clip0_255_7)" fill="#fff"><path d="M44.75 86.605c-11.466 0-22.598-.446-33.507-3.006-3.896-.89-7.68-2.449-11.243-4.341 1.781-1.781 3.228-3.896 4.341-6.123 9.388-19.27 9.916-39.767 10.461-60.948v-.001c.07-2.679.138-5.368.226-8.067V0h48.089v7.458L22.04 7.236c0 1.812.006 3.61.013 5.398.083 22.582.158 43.25-13.149 64.397 11.466 3.896 25.826 6.345 36.846 6.345 10.353 0 18.702-.334 29.722-3.117l.111.223c-2.091.529-4.197 1.1-6.312 1.674-8.13 2.206-16.396 4.449-24.523 4.449z"/><path d="M226.753 17.477c10.233.37 22.787 2.549 35.091 4.684 9.915 1.721 19.668 3.414 27.914 4.11l.284.02.35.026c2.918.215 5.907.435 8.605-.603.446-.111.891-.334 1.114-.779.111-.334 0-.78-.112-1.224-1.224-2.895-4.23-4.787-7.347-5.566-3.117-.78-6.233-1.113-9.462-1.447-7.066-.7-14.742-1.764-22.602-2.854-14.675-2.035-29.993-4.16-43.186-4.16-14.486 0-25.378 2.13-36.46 4.298-9.186 1.796-18.504 3.618-30.108 4.274-17.922 1.002-38.293-.111-56.103-1.892-2.749-.28-5.342-.597-7.86-.903-7.475-.91-14.286-1.74-22.53-1.324-1.224 2.672-1.892 5.677-1.78 8.683 5.617.275 11.235.467 16.854.659 10.3.351 20.6.703 30.9 1.567 17.588 1.447 34.62 1.447 51.54-.556 7.683-.878 14.754-2.033 21.629-3.156h.002c14.043-2.294 27.275-4.455 43.267-3.857z"/><path fill-rule="evenodd" clip-rule="evenodd" d="M50.204 57.885h-8.349l-2.337 5.788h-3.006l9.574-22.708h.222l9.574 22.708h-3.34l-2.338-5.788zm-1.002-2.56l-3.116-8.015-3.229 8.014h6.345z"/><path d="M72.356 63.562L66.68 54.88l-5.232 8.683h-3.673l7.235-11.243-6.901-10.575h3.673l5.455 8.349 5.009-8.35h3.562l-6.901 10.799 7.235 11.02h-3.785zM95.065 41.744v2.783H83.822v6.679h10.019v2.783H83.822v6.79H95.51v2.894H80.816v-21.93h14.249zM123.674 41.744v2.783h-5.9v19.035h-2.894V44.527h-5.678v-2.783h14.472zM145.714 63.562h-2.894V53.99h-11.466v9.573h-2.894V41.744h2.894v9.462h11.466v-9.462h2.894v21.818z"/><path fill-rule="evenodd" clip-rule="evenodd" d="M164.638 63.562l-5.121-8.015h-4.007v8.015h-2.894V41.744h5.788c1.447 0 2.783.223 4.008.78 1.113.556 2.115 1.335 2.783 2.337.667 1.002 1.001 2.226 1.001 3.673 0 1.336-.334 2.56-.89 3.674-.557 1.113-1.559 2.003-2.783 2.56l5.454 8.794h-3.339zm-2.56-12.133c.668-.78 1.001-1.782 1.001-2.895 0-.668-.111-1.224-.445-1.892-.334-.668-.779-1.113-1.336-1.559-.667-.445-1.447-.667-2.449-.667h-3.339v8.126h3.228c1.559.111 2.672-.223 3.34-1.114zM173.544 47.087c1.001-1.67 2.337-3.117 4.118-4.119a10.757 10.757 0 0 1 5.566-1.558c2.004 0 3.896.557 5.566 1.558 1.67 1.002 3.117 2.338 4.119 4.12 1.002 1.78 1.558 3.561 1.558 5.565 0 2.004-.556 3.896-1.558 5.566s-2.338 3.117-4.119 4.118c-1.67 1.002-3.562 1.448-5.566 1.448-2.003 0-3.896-.446-5.566-1.447-1.669-1.002-3.117-2.338-4.118-4.008-1.002-1.67-1.447-3.562-1.447-5.677 0-2.004.445-3.785 1.447-5.566zm2.56 9.796c.779 1.224 1.67 2.226 3.005 3.006 1.225.779 2.672 1.113 4.119 1.113 1.447 0 2.894-.334 4.119-1.113 1.224-.78 2.226-1.782 2.894-3.006.668-1.225 1.113-2.672 1.113-4.23 0-1.559-.334-2.894-1.113-4.23-.779-1.336-1.67-2.338-3.005-3.006-1.225-.779-2.672-1.113-4.119-1.113-1.447 0-2.894.334-4.119 1.113-1.224.78-2.226 1.781-2.894 3.117-.668 1.336-1.113 2.672-1.113 4.23.111 1.447.445 2.783 1.113 4.119z"/><path d="M217.402 64.564l-5.12-13.024-5.566 13.135-8.683-22.82h3.451l5.677 15.919 3.785-9.908-2.338-6.01h2.894l6.123 15.584 5.343-15.585h3.117l-8.683 22.709zM233.321 41.744v21.818h-2.894V41.744h2.894zM259.591 41.855v22.486h-.111L243.45 48.09l.112 15.584h-3.006V41.187h.111l16.03 16.475-.111-15.807h3.005zM280.631 63.117c-1.448.445-2.783.668-3.897.668-2.226 0-4.23-.446-6.011-1.447a9.045 9.045 0 0 1-4.007-3.897c-.891-1.67-1.447-3.45-1.447-5.454 0-2.338.556-4.453 1.558-6.234 1.002-1.78 2.338-3.117 4.119-4.007 1.67-.89 3.562-1.336 5.566-1.336 1.224 0 2.337.111 3.451.445 1.113.334 2.115.668 2.894 1.113l-1.002 2.672a18.336 18.336 0 0 0-2.449-1.002l-.334-.075c-.867-.195-1.646-.37-2.338-.37-1.669 0-3.228.334-4.452 1.002a6.876 6.876 0 0 0-3.006 2.894c-.668 1.224-1.113 2.783-1.113 4.453 0 1.558.334 3.005 1.113 4.23a6.876 6.876 0 0 0 3.006 2.894c1.336.668 2.783 1.002 4.452 1.002.78 0 1.559-.111 2.227-.223.668-.111 1.336-.334 1.781-.668v-4.341H276.4v-2.56h7.347v8.794c-.667.556-1.669 1.002-3.116 1.447z"/><path fill-rule="evenodd" clip-rule="evenodd" d="M198.59 84.156v.667c0 1.225-.557 2.56-1.67 3.563-1.002 1.336-2.227 2.449-3.674 3.45-1.336.891-2.671 1.559-4.007 2.004-1.336.445-2.338.668-3.006.668a6.73 6.73 0 0 1-1.669-.222c-.668 1.558-1.559 4.007-2.672 7.458-.111.445-.223.89-.223 1.447 0 .556-.222 1.336-.556 2.337-.334 1.002-.668 1.782-1.002 2.338-.111.445-.557.668-1.225.891-.668.222-1.113.334-1.447.334-.334 0-.445-.112-.445-.446 0-.111 0-.222.111-.445 1.336-2.783 3.006-6.79 5.01-12.022 1.003-2.554 1.782-4.585 2.337-6.031l.334-.87c-.222.333-.556.667-.89 1.001-1.336 1.447-2.449 2.449-3.117 3.006-1.336 1.001-2.672 1.558-3.785 1.558s-1.892-.556-2.226-1.67c-.112-.445-.112-.779-.112-1.224 0-1.336.223-2.672.78-4.119-.04.04-.123.137-.258.295l-.001.001c-.244.286-.657.771-1.3 1.485-.198.198-.395.4-.596.605-.814.832-1.671 1.708-2.743 2.512-1.336 1.002-2.449 1.558-3.451 1.558-.369 0-.738-.152-1.17-.331l-.148-.061-.129-.053c-.557-.334-1.002-.668-1.336-1.224-.334-.557-.557-1.114-.557-1.67V90.5c-.276.25-.541.496-.798.734l-.002.002c-.883.818-1.678 1.555-2.539 2.158-1.002.78-2.115 1.224-3.34 1.224-1.447 0-2.226-.89-2.226-2.671 0-1.781 1.224-4.008 3.785-6.568l.445-.445.334-.445c.445-.557.557-.891.557-1.002l-.112-.445c-.111-.335-.668-.669-1.447-.78l-.334-.048c-.638-.093-1.194-.174-1.67-.174l-1.335 1.836-.003.004c-1.827 2.514-2.861 3.938-3.226 4.393a.587.587 0 0 1-.121.091c-.058.037-.101.063-.101.132-.779 1.113-1.67 2.004-2.672 2.894-2.56 2.227-5.009 3.34-7.458 3.34-2.004 0-3.451-.668-4.341-1.893-.334-.445-.446-1.113-.446-1.78 0-.446.112-.891.223-1.337l-.668.668a40.23 40.23 0 0 1-2.783 2.56c-1.336 1.002-2.56 1.56-3.785 1.56-1.113 0-1.892-.558-2.226-1.67-.111-.223-.111-.557-.111-.891 0-.334 0-.668.111-1.113.223-1.225 1.002-3.117 2.338-5.677.334-.557.445-.891.445-1.114 0-.222-.111-.334-.334-.334-.445 0-1.336.668-2.672 1.781-.89.891-2.226 2.45-4.007 4.787-1.781 2.338-2.783 3.562-3.006 3.673-1.002.557-1.558.78-1.892.78-.334 0-.334 0-.445-.112-.112-.11-.112-.222 0-.334 0-.11.222-.779.668-1.892a223.304 223.304 0 0 1 2.348-6.511v-.001c.177-.473.323-.863.435-1.169a83.268 83.268 0 0 1-3.563 4.119c-.222.223-.334.223-.334-.111s.223-.668.446-1.002c.334-.334.89-1.002 1.669-2.004a27.558 27.558 0 0 0 1.639-2.035l.085-.115.058-.076.779-1.002c.334-.445.556-.89.779-1.336 2.115-4.564 4.119-7.903 6.122-10.13-.896 0-1.865-.072-3.022-.158-.28-.021-.57-.043-.874-.064-3.117-.334-5.343-.446-6.456-.446-1.113 0-2.783.112-4.787.334-2.783.334-5.12 1.113-7.124 2.227-2.004 1.224-3.228 2.56-3.562 4.341-.111.223-.111.445-.111.668 0 .222.111.556.222.89.111.334.334.557.557.78.334.222.668.445 1.113.779.557.334.89.556 1.002.668.222.111.222.222.111.334-.111.111-.223.111-.334.111h-.334c-.89-.334-1.781-.89-2.449-1.67-.668-.779-1.002-1.447-1.002-2.003 0-.557.112-1.002.223-1.336v-.668c.334-2.115 1.67-3.674 3.896-4.787 2.56-1.336 5.789-2.004 9.685-2.004 2.337 0 5.454.223 9.239.78 2.004.334 3.562.556 4.675.668 1.002-1.002 2.004-1.67 3.006-2.004.556-.223 1.002-.334 1.336-.334 1.335 0 2.115.334 2.56 1.002.223.334.334.668.334.89 0 2.004-1.559 4.453-4.898 7.459-2.894 2.671-5.566 4.786-8.015 6.679-.89 1.78-1.67 4.007-2.56 6.679 1.002-1.336 2.337-2.783 3.896-4.453 3.117-3.34 5.454-5.01 6.679-5.01.668 0 1.002.335 1.002 1.003 0 .667-.112 1.335-.445 1.892-.167.278-.307.556-.446.835-.139.278-.278.556-.445.835-1.336 2.226-2.004 4.23-2.004 6.01 0 .557.112 1.003.334 1.225.446.446 1.002.557 1.781.112.78-.446 1.781-1.225 3.117-2.45 1.336-1.224 2.338-2.448 3.228-3.562h.112c.89-1.224 2.115-2.337 3.784-3.562 2.449-1.67 4.342-2.56 5.678-2.56 1.558 0 2.337.668 2.337 2.226 0 .78-.222 1.447-.668 1.893-.779 1.002-1.892 2.003-3.562 2.783-1.669.779-3.005 1.224-4.118 1.335-.446 0-.668-.11-.668-.333 0-.112 0-.223.111-.223h.223c.667-.111 1.558-.445 2.56-1.002 1.892-1.113 3.339-2.115 4.23-3.228.334-.445.557-1.002.557-1.447 0-.445-.223-.668-.668-.668-.446 0-.891.111-1.559.445-1.447.668-2.783 1.781-4.341 3.34-1.447 1.558-2.449 3.117-2.894 4.564-.112.445-.223.89-.223 1.335 0 .446.223.78.557 1.225.445.334 1.001.556 1.781.556.89 0 1.892-.222 3.005-.667 2.783-1.114 5.009-2.783 6.679-4.898.111 0 .111-.112.111-.112.112-.222.223-.334.334-.445.223-.111.334-.334.446-.556l.111-.112c.186-.28.373-.556.558-.831h.001c.921-1.367 1.817-2.695 2.558-4.178-.334 0-.557-.111-.779-.334-.112-.223-.112-.557 0-1.002.111-.445.556-1.002 1.335-1.781.668-.78 1.336-1.336 1.893-1.558.122-.05.233-.093.334-.132h.001c.358-.14.58-.227.667-.314.111-.111.222-.111.445-.111.334 0 .223.557-.334 1.558l-1.67 2.672c1.336.111 2.449.111 3.34.111h1.558c.557 0 .891.112 1.113.223.334.111.334.334.223.668-.223.556-.779 1.336-1.558 2.226-1.781 2.004-3.006 4.119-3.897 6.457-.222.556-.333 1.002-.333 1.447 0 .779.333 1.224.89 1.224.111 0 .557-.111 1.113-.445.668-.223 1.559-1.002 2.894-2.226a23.12 23.12 0 0 0 2.338-2.338c.557-.89 1.336-1.781 2.338-2.672 1.336-1.113 2.671-2.115 4.007-2.894 1.447-.89 2.56-1.336 3.34-1.558a8.47 8.47 0 0 1 2.337-.334c.78 0 1.447.111 2.004.556.557.334.779.78.779 1.225v.223c0 .11-.111.11-.222 0-.334-.557-1.002-.78-2.115-.78-1.114 0-2.338.445-3.674 1.113a17.368 17.368 0 0 0-3.896 2.672c-1.002 1.002-1.892 2.004-2.672 3.228-.779 1.225-1.113 2.115-1.113 2.672 0 1.002.334 1.558.891 1.558.668 0 1.558-.445 2.783-1.447a45.23 45.23 0 0 0 4.23-3.785c2.671-2.894 4.119-4.341 4.341-4.341.334 0 .779.111 1.225.334.445.223.668.445.445.78-1.447 2.003-2.338 4.118-2.56 6.233v1.002c0 .445.111.779.334 1.002.445.445 1.001.556 1.781.11.779-.444 1.781-1.224 3.117-2.448 1.335-1.224 2.448-2.449 3.228-3.562.064-.064.091-.091.124-.103.024-.009.051-.009.098-.009.142-.354.284-.8.455-1.335.097-.305.204-.639.325-1.002.556-1.781.89-3.228 1.001-4.119 0-.334.446-.556 1.336-.556.891 0 1.336.334 1.336 1.001 0 .557-.334 1.225-.891 2.115-.556.89-1.335 2.56-2.448 5.232 1.669-2.56 3.116-4.23 4.118-5.009 1.336-1.113 2.672-1.67 4.008-1.67.556 0 1.002 0 1.558.223 1.113.445 1.781 1.113 1.893 2.004zm-63.451-14.917c-.445 0-1.002.223-1.67.78-3.228 2.448-6.122 6.456-8.571 12.244 1.892-1.224 3.896-2.894 5.899-4.898 2.004-2.115 3.563-3.896 4.453-5.677.334-.668.557-1.336.557-1.78 0-.446-.223-.669-.668-.669zm55.77 22.375c2.003-1.559 3.673-3.228 4.675-5.01.557-.89.89-1.78 1.002-2.226 0-1.002-.445-1.558-1.225-1.558-.445 0-1.224.223-2.226.779-1.002.557-2.115 1.336-3.117 2.449-1.113 1.113-1.892 2.115-2.449 3.117-.278.5-.528 1.001-.779 1.502-.251.501-.501 1.003-.779 1.503-.424.763-.654 1.268-.789 1.564a5.98 5.98 0 0 1-.102.218c1.781 0 3.674-.78 5.789-2.338z"/><path d="M111.762 92.727c.78-1.002 1.336-1.447 1.559-1.447.111 0 .111.111 0 .111 0 .223-.111.445-.557.89l-.445.669c-.779 1.224-1.336 1.892-1.67 2.115-.334.222-.668.334-.89.334-.223 0-.557 0-1.002-.112-.445-.111-.668-.222-.668-.334v-.779c0-.334.223-1.224.779-2.672a48.795 48.795 0 0 1 1.893-4.23c1.335-2.67 2.671-5.12 4.006-7.568h.001v-.001c.334-.445.445-.89.445-1.113 0-.334 0-.557-.111-.668.111-.89.891-1.892 2.115-3.228 1.224-1.336 2.449-2.004 3.451-2.004.445 0 1.002.223 1.67.556.667.446 1.001.891.89 1.448a2.907 2.907 0 0 1-.159-.088c-.131-.075-.234-.135-.397-.135-1.225 0-2.783 1.224-4.564 3.562-3.006 4.008-5.566 8.46-7.681 13.58-.223.557-.334 1.003-.334 1.225v.446c.111.222.334.334.668.222.334-.111.668-.334 1.001-.779z"/><path fill-rule="evenodd" clip-rule="evenodd" d="M219.851 87.161c.334-.334.445-.445.556-.111 0 0 0 .111.112.222 0 .112 0 .334-.223.557-.89 1.225-2.338 2.672-4.341 4.453-2.004 1.78-3.562 3.005-4.676 3.673-2.449 5.121-4.007 8.238-4.897 9.574-2.227 3.228-4.342 4.786-6.457 4.786-.222 0-.556 0-.89-.111-1.448-.445-2.227-1.113-2.227-2.338 0-1.224.668-2.671 2.227-4.452 1.447-1.67 4.675-4.23 9.573-7.459 2.671-5.566 4.453-9.462 5.12-11.688l-2.003 2.672-.501.67c-.8 1.072-1.524 2.041-2.171 2.78-.779.891-1.67 1.782-2.783 2.672-1.113.78-2.115 1.224-3.005 1.224-.891 0-1.559-.222-2.115-.667-.557-.446-.78-.78-.891-1.336-.111-.557-.111-.89-.111-1.225 0-1.113.334-2.115.89-3.228a14.455 14.455 0 0 1 3.562-4.564c.557-.556 1.002-.78 1.448-.78.334 0 .779.224 1.113.446.334.334.445.668.334 1.002-1.113.668-2.338 1.892-3.785 3.673-.779.891-1.225 2.227-1.559 3.674v.78c0 .333.112.556.334.778.223.223.557.334.78.334.89 0 1.781-.445 2.783-1.447.76-.676 1.457-1.48 2.138-2.267.216-.25.43-.497.644-.738.755-.85 1.59-1.939 2.505-3.132l.501-.653 1.1-1.427.002-.003.021-.027.002-.002c.519-.673.895-1.16 1.101-1.435.334-.446.78-.668 1.114-.668.445 0 1.001.222 1.447.445.556.223.779.445.668.557-.112.11-.891 1.67-2.227 4.897-1.336 3.229-2.337 5.455-3.005 6.79.668-.333 1.892-1.224 3.562-2.67 1.67-1.337 3.117-2.784 4.23-4.23zm-14.325 15.32v-.001c.261-.584.576-1.29.967-2.072.668-1.447 1.113-2.338 1.447-2.783-3.451 2.56-6.011 4.564-7.458 6.122-1.447 1.559-2.227 2.783-2.227 3.897 0 1.113.334 1.669 1.114 1.669.556 0 1.224-.334 2.003-.89a11.086 11.086 0 0 0 2.115-2.338c.668-1.002 1.225-1.892 1.559-2.56.138-.276.295-.629.479-1.042v-.001l.001-.001z"/><path d="M12.356 13.247h-.11c-.223.055-.53.055-.836.055-.306 0-.612 0-.835.056-.085 0-.105.066-.16.247-.016.055-.036.12-.062.198a5.762 5.762 0 0 0-.112.612c-.027.195-.055.39-.11.613-.057.39-.112.807-.168 1.224-.056.418-.111.835-.167 1.225-.167 1.255-.146 2.574-.125 3.861.007.424.014.845.014 1.26v.11h.111c.668.112 1.447.112 2.227.112.11 0 .11-.111.11-.111l.112-2.56c.056-1.003.084-1.977.111-2.95.028-.975.056-1.949.112-2.95v-.78c0-.111-.112-.222-.112-.222z"/></g><defs><clipPath id="clip0_255_7"><path fill="#fff" d="M0 0h300v109.984H0z"/></clipPath></defs></svg>